inDegrees=yes
name=ik_S56_A10_T01
DataType=double
version=3
OpenSimVersion=4.3-2021-08-27-4bc7ad9
endheader
time	pelvis_tilt	pelvis_list	pelvis_rotation	pelvis_tx	pelvis_ty	pelvis_tz	hip_flexion_r	hip_adduction_r	hip_rotation_r	knee_angle_r	knee_angle_r_beta	ankle_angle_r	subtalar_angle_r	mtp_angle_r	hip_flexion_l	hip_adduction_l	hip_rotation_l	knee_angle_l	knee_angle_l_beta	ankle_angle_l	subtalar_angle_l	mtp_angle_l	lumbar_extension	lumbar_bending	lumbar_rotation	arm_flex_r	arm_add_r	arm_rot_r	elbow_flex_r	pro_sup_r	wrist_flex_r	wrist_dev_r	arm_flex_l	arm_add_l	arm_rot_l	elbow_flex_l	pro_sup_l	wrist_flex_l	wrist_dev_l
5.719999999999966	-2.035147256634818	-0.3210701730902049	20.25571922064931	0	0.9399999999999999	0	42.25615281231705	-10.10393076574896	-9.992434532944998	53.64576243077112	0.9362951841596326	0	0	0	42.25615281231705	-10.10393076574896	-9.992434532944998	53.64576243077112	0.9362951841596326	0	0	0	-1.976173589732364	0.6752013692584026	2.75767758742997	82.62068287905245	-17.2641844226823	42.29090357318191	45.66073906699867	35.09107619786675	0	0	69.66072720826716	-2.319403142857362	18.67787405016297	53.67045107668208	58.85178804601973	0	0
5.739999999999966	-1.989863440768495	-0.2798130869850807	20.22746369853084	0	0.9399999999999999	0	42.28282436542075	-10.10161950611407	-9.992561454632497	53.65743488556151	0.9364989069275153	0	0	0	42.28282436542075	-10.10161950611407	-9.992561454632497	53.65743488556151	0.9364989069275153	0	0	0	-1.920392516691752	0.6988023321086176	2.754695037454431	86.7024561714138	-17.96137866325923	45.30205265546545	45.98642741817713	33.01327416758028	0	0	69.6962656208719	-2.567894431651035	18.36126963299805	56.41160449824543	58.37300257271794	0	0
5.759999999999965	-1.847024350657807	-0.1337857318488575	20.16734103402159	0	0.9399999999999999	0	42.31368284758812	-10.0989680162638	-9.992707555261404	53.67095295723447	0.9367348417867288	0	0	0	42.31368284758812	-10.0989680162638	-9.992707555261404	53.67095295723447	0.9367348417867288	0	0	0	-1.735668860650588	0.7871379376980311	2.709774177752441	90.58054153718051	-18.21797141074168	48.34247875127115	45.02601391091761	31.60315152919288	0	0	69.55286658252359	-2.974051231524063	17.59816399101766	60.6225172623157	60.15038268935292	0	0
5.779999999999965	-1.672916000000288	0.03851832776417531	20.02388563561104	0	0.9399999999999999	0	42.35041578357668	-10.09587633688536	-9.992879448233642	53.68711563615517	0.9370169337498377	0	0	0	42.35041578357668	-10.09587633688536	-9.992879448233642	53.68711563615517	0.9370169337498377	0	0	0	-1.51528485251549	0.8857307066958602	2.639333055779363	93.96702226919351	-18.25346704171398	50.94157651468461	43.78073297490038	30.22817091404289	0	0	69.3409821002885	-3.496537513629583	16.39490249272729	67.28718860584536	62.89839145402085	0	0
5.799999999999964	-1.479840906835748	0.1686663340652299	19.84557421683225	0	0.9399999999999999	0	42.37045612460228	-10.09415877402304	-9.992974151060723	53.69582913301497	0.9371690129594034	0	0	0	42.37045612460228	-10.09415877402304	-9.992974151060723	53.69582913301497	0.9371690129594034	0	0	0	-1.289456865437159	0.9354108739162172	2.608889215193003	96.39010955059274	-18.25357646828552	51.85266941521331	42.90827386438171	30.51590158193419	0	0	68.92381543237597	-3.719072075316154	15.90396923438822	70.07121201287295	63.73951701286461	0	0
5.819999999999964	-1.234862252292701	0.2583104181427239	19.68778345075541	0	0.9399999999999999	0	42.37185745595067	-10.09398427416108	-9.992982513630375	53.69629512904934	0.9371771461245044	0	0	0	42.37185745595067	-10.09398427416108	-9.992982513630375	53.69629512904934	0.9371771461245044	0	0	0	-1.028826719802483	0.9356833323149577	2.577741213220285	96.17945094193897	-18.21763734139412	51.61173259184007	43.21645345927551	32.45332943858959	0	0	68.42183376137103	-3.94242437227912	15.59067487044681	72.14670314273425	65.33270413620514	0	0
5.839999999999963	-0.989003717336173	0.312936226153207	19.56923648276386	0	0.9399999999999999	0	42.39713736240611	-10.09186389544843	-9.993100547169712	53.70735043469758	0.9373700976078806	0	0	0	42.39713736240611	-10.09186389544843	-9.993100547169712	53.70735043469758	0.9373700976078806	0	0	0	-0.7790467806478854	0.901680105039779	2.528730485721287	97.76619741741844	-18.13848037735506	51.46583715166865	42.72508923984703	33.59659898734117	0	0	67.93465473712489	-4.140182860080259	15.41483971652709	73.69921039750646	67.02159212262004	0	0
5.859999999999963	-0.7514438609424168	0.3676371152674613	19.49832599986687	0	0.9399999999999999	0	42.39802543993478	-10.09175545014548	-9.993105787177385	53.70764760106768	0.937375284139465	0	0	0	42.39802543993478	-10.09175545014548	-9.993105787177385	53.70764760106768	0.937375284139465	0	0	0	-0.5369609043410855	0.8722316056148923	2.484233479746785	97.42133535491348	-18.09882982789188	51.25051731719967	43.14811182077401	34.87348385698391	0	0	67.47189844326114	-4.274640205043944	15.28712819471136	74.87722871281963	68.45580682935925	0	0
5.879999999999963	-0.6238261966440534	0.4022305240480556	19.44935713116139	0	0.9399999999999999	0	42.41110223288601	-10.09067920107739	-9.993166237939176	53.71336987509532	0.9374751566619488	0	0	0	42.41110223288601	-10.09067920107739	-9.993166237939176	53.71336987509532	0.9374751566619488	0	0	0	-0.4060674313837317	0.8604785954428317	2.533409548558455	99.79299451742249	-18.68255553663662	52.18147887962184	42.82801054776979	34.12623716778876	0	0	67.21785424619111	-4.283253626923395	15.2570569782214	75.67228362241775	69.66221461378711	0	0
5.899999999999962	-0.2946008122305019	0.4944952279583388	19.42854585576001	0	0.9399999999999999	0	42.41200243407791	-10.09057008362567	-9.993171527665874	53.7136713763154	0.9374804188509378	0	0	0	42.41200243407791	-10.09057008362567	-9.993171527665874	53.7136713763154	0.9374804188509378	0	0	0	-0.06517186287999589	0.8387418358909388	2.494875632273996	99.1371052543158	-18.65686047546419	52.05452702987494	43.03932436154153	34.77540942721052	0	0	66.52835425808669	-4.345341123310117	15.24154632765207	76.08467210090264	70.77625081302362	0	0
5.919999999999962	-0.228050553678502	0.5020395906837271	19.22835349844727	0	0.9399999999999999	0	42.41325190979986	-10.09041748313891	-9.993178907211446	53.71408669160163	0.9374876674701165	0	0	0	42.41325190979986	-10.09041748313891	-9.993178907211446	53.71408669160163	0.9374876674701165	0	0	0	-0.002611962152071466	0.8234353724696387	2.721052778161029	100.0517450535313	-20.03783740079625	53.77123025145075	43.75941242639866	33.26755095041432	0	0	66.402262967867	-4.33194152370619	15.28598977471862	76.29054941962069	71.11930160852692	0	0
5.939999999999961	0.2530625401980164	0.3636501620038398	20.29194111824577	0	0.9399999999999999	0	42.60399576176373	-10.07541838801422	-9.994042612868096	53.79682551667986	0.9389317323869631	0	0	0	42.60399576176373	-10.07541838801422	-9.994042612868096	53.79682551667986	0.9389317323869631	0	0	0	0.1297822008682	1.046031334825223	1.839163332466267	99.62098967789417	-20.80479838425776	54.16473200742289	44.23058703370084	32.90479131022042	0	0	103.5922381333924	-9.193748616479931	22.00321281346153	46.40478411405567	50.70972567235971	0	0
